<svg id="Слой_1" data-name="Слой 1" xmlns="http://www.w3.org/2000/svg" xmlns:xlink="http://www.w3.org/1999/xlink" viewBox="0 0 636.26 222.14"><defs><style>.cls-1{fill:#202121;}.cls-2{fill:url(#Безымянный_градиент_13);}.cls-3{fill:url(#Безымянный_градиент_13-2);}</style><linearGradient id="Безымянный_градиент_13" x1="621.45" y1="97.97" x2="635.64" y2="97.97" gradientUnits="userSpaceOnUse"><stop offset="0" stop-color="#24387c"/><stop offset="0.57" stop-color="#234e97"/><stop offset="1" stop-color="#235aa6"/></linearGradient><linearGradient id="Безымянный_градиент_13-2" x1="14.58" y1="53.14" x2="202.42" y2="161.59" xlink:href="#Безымянный_градиент_13"/></defs><g id="_1" data-name="1"><path class="cls-1" d="M299.81,73.09A35.75,35.75,0,0,1,297.33,87a26.34,26.34,0,0,1-7.05,9.84,29.57,29.57,0,0,1-11,5.86,50.07,50.07,0,0,1-14.24,1.9q-3.72,0-8.43-.31a57.07,57.07,0,0,1-9-1.28V43.29a54,54,0,0,1,9-1.24c3.2-.18,6-.27,8.52-.27a51.5,51.5,0,0,1,14.1,1.82,29.1,29.1,0,0,1,11,5.68A25.51,25.51,0,0,1,297.33,59,36.16,36.16,0,0,1,299.81,73.09Zm-41,21.56c.65.06,1.51.1,2.57.13s2.52,0,4.35,0q11.26,0,16.81-5.73t5.54-16q0-10.45-5.41-16.05t-16.76-5.59a64.15,64.15,0,0,0-7.1.27Z"/><path class="cls-1" d="M322.87,56.33a26.16,26.16,0,0,1,9,1.33,14.28,14.28,0,0,1,5.81,3.73,14,14,0,0,1,3.11,5.81,28.4,28.4,0,0,1,.93,7.49v28.12q-2.49.52-7.5,1.28a75.49,75.49,0,0,1-11.31.76,34.11,34.11,0,0,1-7.63-.8,16,16,0,0,1-5.89-2.57,12.14,12.14,0,0,1-3.82-4.61,16,16,0,0,1-1.37-7,13.47,13.47,0,0,1,1.55-6.74,12.64,12.64,0,0,1,4.21-4.48,18.3,18.3,0,0,1,6.17-2.49,34.44,34.44,0,0,1,11-.53,34.34,34.34,0,0,1,4.17.76V74.6a14.21,14.21,0,0,0-.44-3.55,7.45,7.45,0,0,0-1.56-3,7.29,7.29,0,0,0-2.92-2,12.57,12.57,0,0,0-4.57-.71,40,40,0,0,0-6.83.53,29.91,29.91,0,0,0-5.06,1.24l-1.33-8.69A42.24,42.24,0,0,1,314.53,57,47,47,0,0,1,322.87,56.33Zm.89,40a39.59,39.59,0,0,0,7.54-.53V83.92a20.65,20.65,0,0,0-2.57-.54,25.1,25.1,0,0,0-3.73-.26,25.83,25.83,0,0,0-3.59.26,11.32,11.32,0,0,0-3.28,1,5.93,5.93,0,0,0-2.35,2,5.53,5.53,0,0,0-.89,3.24c0,2.55.8,4.3,2.39,5.28A12.34,12.34,0,0,0,323.76,96.33Z"/><path class="cls-1" d="M349.74,45.24l10.73-1.77v14H377v9h-16.5V85.33q0,5.6,1.78,8t6,2.39a19.44,19.44,0,0,0,5.19-.62,36.24,36.24,0,0,0,3.59-1.15l1.77,8.51a38.63,38.63,0,0,1-4.88,1.64,26.14,26.14,0,0,1-7.09.85,22.56,22.56,0,0,1-8.29-1.33,12.29,12.29,0,0,1-5.28-3.86,15.33,15.33,0,0,1-2.75-6.12,38.21,38.21,0,0,1-.8-8.21Z"/><path class="cls-1" d="M402,56.33a26.2,26.2,0,0,1,9,1.33,14.35,14.35,0,0,1,5.81,3.73,13.86,13.86,0,0,1,3.1,5.81,28,28,0,0,1,.94,7.49v28.12q-2.49.52-7.5,1.28a75.49,75.49,0,0,1-11.31.76,34.11,34.11,0,0,1-7.63-.8,16.12,16.12,0,0,1-5.9-2.57,12.2,12.2,0,0,1-3.81-4.61,16,16,0,0,1-1.37-7,13.47,13.47,0,0,1,1.55-6.74,12.64,12.64,0,0,1,4.21-4.48,18.22,18.22,0,0,1,6.17-2.49,34.44,34.44,0,0,1,11-.53,34.34,34.34,0,0,1,4.17.76V74.6a13.76,13.76,0,0,0-.45-3.55,7.06,7.06,0,0,0-4.48-5,12.47,12.47,0,0,0-4.56-.71,40,40,0,0,0-6.83.53,29.91,29.91,0,0,0-5.06,1.24l-1.33-8.69A42.24,42.24,0,0,1,393.7,57,46.87,46.87,0,0,1,402,56.33Zm.89,40a39.59,39.59,0,0,0,7.54-.53V83.92a20.48,20.48,0,0,0-2.58-.54,24.86,24.86,0,0,0-3.72-.26,25.83,25.83,0,0,0-3.59.26,11.23,11.23,0,0,0-3.28,1,5.93,5.93,0,0,0-2.35,2,5.53,5.53,0,0,0-.89,3.24c0,2.55.8,4.3,2.39,5.28A12.34,12.34,0,0,0,402.93,96.33Z"/><path class="cls-1" d="M466.75,42.4v9.67H447.1v51.8H436.59V52.07H417.7V42.4Z"/><path class="cls-1" d="M482.84,56.33a26.16,26.16,0,0,1,9,1.33,14.28,14.28,0,0,1,5.81,3.73,14,14,0,0,1,3.11,5.81,28.4,28.4,0,0,1,.93,7.49v28.12q-2.49.52-7.5,1.28a75.49,75.49,0,0,1-11.31.76,34.11,34.11,0,0,1-7.63-.8,16,16,0,0,1-5.89-2.57,12.14,12.14,0,0,1-3.82-4.61,16,16,0,0,1-1.37-7,13.47,13.47,0,0,1,1.55-6.74,12.64,12.64,0,0,1,4.21-4.48,18.3,18.3,0,0,1,6.17-2.49,34.44,34.44,0,0,1,11-.53,34.34,34.34,0,0,1,4.17.76V74.6a14.21,14.21,0,0,0-.44-3.55,7.45,7.45,0,0,0-1.56-3,7.29,7.29,0,0,0-2.92-2,12.57,12.57,0,0,0-4.57-.71,40,40,0,0,0-6.83.53,29.91,29.91,0,0,0-5.06,1.24l-1.33-8.69A42.09,42.09,0,0,1,474.51,57,46.84,46.84,0,0,1,482.84,56.33Zm.89,40a39.59,39.59,0,0,0,7.54-.53V83.92a20.65,20.65,0,0,0-2.57-.54,25.1,25.1,0,0,0-3.73-.26,25.83,25.83,0,0,0-3.59.26,11.32,11.32,0,0,0-3.28,1,5.93,5.93,0,0,0-2.35,2,5.53,5.53,0,0,0-.89,3.24c0,2.55.8,4.3,2.39,5.28A12.34,12.34,0,0,0,483.73,96.33Z"/><path class="cls-1" d="M527.14,104.76a29.22,29.22,0,0,1-7.94-1.06,12.34,12.34,0,0,1-5-2.8,9.87,9.87,0,0,1-2.61-4.52,22.75,22.75,0,0,1-.76-6.17V36.82L521.56,35V88.17a14.48,14.48,0,0,0,.31,3.28,5.19,5.19,0,0,0,1.1,2.27,5.08,5.08,0,0,0,2.18,1.42,17.4,17.4,0,0,0,3.5.75Z"/><path class="cls-1" d="M546.77,75.58c1.36-1.42,2.8-2.94,4.34-4.57s3-3.25,4.53-4.88,2.88-3.19,4.21-4.7,2.47-2.82,3.42-4H576q-4.43,5-9.34,10.29t-9.86,10.38a62,62,0,0,1,5.57,5.37q2.92,3.15,5.67,6.69t5.13,7.1a72.09,72.09,0,0,1,4,6.56H564.68q-1.59-2.75-3.68-5.76t-4.48-5.86c-1.59-1.89-3.22-3.68-4.87-5.36a43,43,0,0,0-4.88-4.31v21.29H536V36.82L546.77,35Z"/><path class="cls-1" d="M596.74,96.16a14.1,14.1,0,0,0,6.2-1,3.64,3.64,0,0,0,2-3.51,4.54,4.54,0,0,0-2.09-3.81,30.31,30.31,0,0,0-6.87-3.28,53.57,53.57,0,0,1-5.37-2.27,18,18,0,0,1-4.21-2.79,11.32,11.32,0,0,1-2.8-3.86,13.44,13.44,0,0,1-1-5.54A12.11,12.11,0,0,1,587.24,60c3.14-2.45,7.39-3.68,12.78-3.68a39.39,39.39,0,0,1,7.8.75,37.65,37.65,0,0,1,5.59,1.47l-1.95,8.69a26.17,26.17,0,0,0-4.52-1.46,27.08,27.08,0,0,0-6.39-.67,11.09,11.09,0,0,0-5.32,1.11,3.64,3.64,0,0,0-2,3.41,4.86,4.86,0,0,0,.4,2A4.34,4.34,0,0,0,595,73.32a14.21,14.21,0,0,0,2.57,1.5,40.15,40.15,0,0,0,3.91,1.56,57.47,57.47,0,0,1,6.47,2.79,17.52,17.52,0,0,1,4.39,3.1,10.69,10.69,0,0,1,2.53,4,15.81,15.81,0,0,1,.8,5.32q0,6.66-4.93,10.07T596.65,105a39,39,0,0,1-9.85-1,51.85,51.85,0,0,1-5.23-1.64l1.86-9a48.27,48.27,0,0,0,5.72,1.86A29.61,29.61,0,0,0,596.74,96.16Z"/><path class="cls-2" d="M635.64,98a6.59,6.59,0,0,1-2.08,5,7.45,7.45,0,0,1-10.07,0,6.67,6.67,0,0,1-2-5,6.83,6.83,0,0,1,2-5.1,7.34,7.34,0,0,1,10.07,0A6.75,6.75,0,0,1,635.64,98Z"/><path class="cls-1" d="M274.21,187.1A34.11,34.11,0,0,1,261.8,185a24.53,24.53,0,0,1-9.32-6.25,28,28,0,0,1-5.85-10.07,42,42,0,0,1-2-13.66,36.89,36.89,0,0,1,2.35-13.66,29.65,29.65,0,0,1,6.43-10.07A27.15,27.15,0,0,1,263,125a32.4,32.4,0,0,1,11.8-2.13,38.54,38.54,0,0,1,6.92.58,47.16,47.16,0,0,1,5.41,1.29,22.57,22.57,0,0,1,3.81,1.5c1,.54,1.71.92,2.13,1.16l-3.28,9.13a26.53,26.53,0,0,0-6.08-2.53,29.62,29.62,0,0,0-8.56-1.19,20.13,20.13,0,0,0-7.45,1.37,16.11,16.11,0,0,0-6,4.13,19.16,19.16,0,0,0-3.94,6.92,29.86,29.86,0,0,0-1.42,9.66,34,34,0,0,0,1.11,9,19.62,19.62,0,0,0,3.41,7,15.57,15.57,0,0,0,5.85,4.62,20.26,20.26,0,0,0,8.52,1.64,32.29,32.29,0,0,0,9.67-1.2,38.63,38.63,0,0,0,5.76-2.26l3,9.13a14.82,14.82,0,0,1-2.88,1.42,41.46,41.46,0,0,1-9.89,2.44A51.61,51.61,0,0,1,274.21,187.1Z"/><path class="cls-1" d="M316.08,186.66a29.18,29.18,0,0,1-7.94-1.07,12.2,12.2,0,0,1-5-2.79,9.89,9.89,0,0,1-2.62-4.52,23.17,23.17,0,0,1-.75-6.17v-53.4l10.73-1.77v53.13a14.48,14.48,0,0,0,.31,3.28,5.27,5.27,0,0,0,1.11,2.26,4.87,4.87,0,0,0,2.17,1.42,16.93,16.93,0,0,0,3.51.76Z"/><path class="cls-1" d="M361.32,184.35q-3.1.79-8.08,1.64a65.62,65.62,0,0,1-10.91.84,24.11,24.11,0,0,1-9.35-1.59,15,15,0,0,1-6-4.44,17.51,17.51,0,0,1-3.23-6.78,36.06,36.06,0,0,1-1-8.65v-26h10.73v24.3q0,7.45,2.18,10.65c1.45,2.13,4,3.19,7.58,3.19,1.3,0,2.68-.06,4.13-.18a20.56,20.56,0,0,0,3.23-.44V139.38h10.74Z"/><path class="cls-1" d="M413.74,162.62a29.22,29.22,0,0,1-1.64,10.07,21.9,21.9,0,0,1-4.71,7.67,20.22,20.22,0,0,1-7.4,4.88,27.16,27.16,0,0,1-9.85,1.68,62.44,62.44,0,0,1-10.15-.79,64.74,64.74,0,0,1-8-1.78V118.71l10.73-1.77v24a26.14,26.14,0,0,1,4.57-1.78,23.05,23.05,0,0,1,14.72.93,17.09,17.09,0,0,1,6.43,4.93,22.63,22.63,0,0,1,3.95,7.67A33.49,33.49,0,0,1,413.74,162.62Zm-11-.18q0-6.83-2.71-10.82t-8.56-4a16.52,16.52,0,0,0-8.78,2.57v26.7a29.52,29.52,0,0,0,3,.49,36.61,36.61,0,0,0,4.39.22,11.47,11.47,0,0,0,9.32-4Q402.73,169.54,402.74,162.44Z"/><path class="cls-3" d="M168.87,218.06c-42.59,13-118-5.22-148.7-50.46C-24.94,101,13.25,10,93.85.76c47-5.39,89.44,18.14,109.08,63.6,18.9,43.73,7,90.8-30.42,122.48-6.35,5.37-14,9.19-21.53,14,1.73,4.81,10.93,8.87,18,11.35A3.07,3.07,0,0,1,168.87,218.06ZM80.69,98.2a22.73,22.73,0,0,0-6.47-8.9,27,27,0,0,0-10.07-5.09,49.08,49.08,0,0,0-13.07-1.62q-3.39,0-8.13.28A76.52,76.52,0,0,0,33.85,84v54.6a63.91,63.91,0,0,0,8.9,1.18q4.53.28,7.93.28a47,47,0,0,0,13.43-1.78,27.25,27.25,0,0,0,10.15-5.34,23.53,23.53,0,0,0,6.43-9A32.74,32.74,0,0,0,83,111.22,33.72,33.72,0,0,0,80.69,98.2ZM46.47,93.59a25.49,25.49,0,0,1,2.59-.2c.92,0,1.81,0,2.67,0q9.47,0,13.83,4.53t4.37,13.34q0,8.41-4.57,13.19t-14,4.77c-1.07,0-2,0-2.79,0s-1.47-.07-2.06-.12ZM84,83.24V94h16.91v45.3h12.62V94h16.91V83.24Zm86.72,55.89a29.32,29.32,0,0,0,7.52-2.91l-3.48-10.11-2.34,1a19.32,19.32,0,0,1-3,1,37.18,37.18,0,0,1-3.89.77,33.27,33.27,0,0,1-4.93.32,17.77,17.77,0,0,1-7.44-1.41,13.3,13.3,0,0,1-5-3.85,15.28,15.28,0,0,1-2.75-5.78,29.76,29.76,0,0,1-.85-7.24,23.12,23.12,0,0,1,1.3-8.25,15.64,15.64,0,0,1,3.43-5.54,12.82,12.82,0,0,1,4.94-3.11,17.17,17.17,0,0,1,5.7-1,28.71,28.71,0,0,1,7.81,1,29.76,29.76,0,0,1,6,2.34l3.64-10.19c-.43-.27-1.13-.65-2.1-1.13a24.56,24.56,0,0,0-3.64-1.42,41.47,41.47,0,0,0-5.1-1.21,36.5,36.5,0,0,0-6.47-.53,32.72,32.72,0,0,0-11.4,1.94,25,25,0,0,0-9.06,5.71,26.66,26.66,0,0,0-6,9.22,33.33,33.33,0,0,0-2.18,12.41q0,14,7.16,21.6t20.83,7.6A44,44,0,0,0,170.72,139.13Z"/></g></svg>