<svg id="Слой_1" data-name="Слой 1" xmlns="http://www.w3.org/2000/svg" xmlns:xlink="http://www.w3.org/1999/xlink" viewBox="0 0 210.72 222.14"><defs><style>.cls-1{fill:url(#Безымянный_градиент_13);}</style><linearGradient id="Безымянный_градиент_13" x1="13.63" y1="53.37" x2="201.48" y2="161.83" gradientUnits="userSpaceOnUse"><stop offset="0" stop-color="#24387c"/><stop offset="0.57" stop-color="#234e97"/><stop offset="1" stop-color="#235aa6"/></linearGradient></defs><path class="cls-1" d="M167.92,218.29c-42.58,13-118-5.21-148.7-50.45C-25.88,101.28,12.31,10.24,92.9,1,139.94-4.4,182.34,19.14,202,64.6c18.9,43.72,7,90.79-30.43,122.47-6.34,5.37-14,9.19-21.52,14.05,1.73,4.81,10.93,8.88,18,11.35A3.07,3.07,0,0,1,167.92,218.29ZM79.75,98.43a22.61,22.61,0,0,0-6.48-8.89,26.7,26.7,0,0,0-10.07-5.1,49,49,0,0,0-13.06-1.62c-2.27,0-5,.1-8.13.29a72.59,72.59,0,0,0-9.1,1.09v54.6a65.44,65.44,0,0,0,8.9,1.17q4.53.28,7.93.29a46.87,46.87,0,0,0,13.42-1.79,27.43,27.43,0,0,0,10.16-5.33,23.68,23.68,0,0,0,6.43-9A32.77,32.77,0,0,0,82,111.46,33.77,33.77,0,0,0,79.75,98.43ZM45.53,93.82c.81-.1,1.67-.17,2.59-.2s1.8,0,2.67,0q9.47,0,13.83,4.53T69,111.46q0,8.42-4.57,13.18t-14,4.78c-1.08,0-2,0-2.79,0s-1.47-.06-2.06-.12ZM83.06,83.47V94.23H100v45.3h12.62V94.23h16.9V83.47Zm86.72,55.9a29.82,29.82,0,0,0,7.52-2.92l-3.48-10.11c-.7.32-1.48.68-2.34,1a19.46,19.46,0,0,1-3,1,34.11,34.11,0,0,1-3.88.77,33.18,33.18,0,0,1-4.93.33,17.73,17.73,0,0,1-7.44-1.42,13.17,13.17,0,0,1-5-3.84,15.43,15.43,0,0,1-2.75-5.78,29.33,29.33,0,0,1-.85-7.24,23.37,23.37,0,0,1,1.29-8.26,15.65,15.65,0,0,1,3.44-5.54,13.06,13.06,0,0,1,4.94-3.11,17.16,17.16,0,0,1,5.7-1,28.73,28.73,0,0,1,7.81,1,30.35,30.35,0,0,1,6,2.35l3.64-10.2c-.43-.27-1.13-.64-2.1-1.13a25.71,25.71,0,0,0-3.64-1.42,43.87,43.87,0,0,0-5.1-1.21,36.63,36.63,0,0,0-6.47-.52,32.49,32.49,0,0,0-11.4,1.94,24.86,24.86,0,0,0-9.06,5.7,26.76,26.76,0,0,0-6,9.22,33.14,33.14,0,0,0-2.18,12.42q0,14,7.16,21.6t20.82,7.6A44.06,44.06,0,0,0,169.78,139.37Z"/></svg>